<svg width="256" height="256" viewBox="0 0 256 256" fill="none" xmlns="http://www.w3.org/2000/svg">
<rect width="256" height="256" fill="#FAF8F5"/>
<path d="M53 154.947V101.759H60.4274L60.8289 115.207L60.0259 114.906C60.6951 110.356 62.1337 107.044 64.3419 104.97C66.6169 102.83 69.628 101.759 73.3752 101.759H78.5945V109.787H73.4756C70.799 109.787 68.5574 110.289 66.7508 111.293C65.011 112.229 63.6727 113.668 62.7359 115.608C61.8661 117.481 61.4311 119.89 61.4311 122.834V154.947H53Z" fill="black"/>
<path d="M89.7874 170V162.574H95.91C97.7835 162.574 99.1553 162.273 100.025 161.671C100.962 161.135 101.665 160.232 102.133 158.961L104.04 153.943H101.129L81.6573 101.759H90.8914L106.75 146.116L121.906 101.759H131.14L109.56 161.671C108.557 164.547 107.051 166.655 105.044 167.993C103.036 169.331 100.259 170 96.7129 170H89.7874Z" fill="black"/>
<path d="M158.515 156.151C153.631 156.151 149.348 155.014 145.668 152.739C141.988 150.464 139.144 147.253 137.136 143.105C135.129 138.89 134.125 133.973 134.125 128.353C134.125 122.666 135.129 117.749 137.136 113.601C139.144 109.453 141.988 106.242 145.668 103.967C149.348 101.692 153.631 100.555 158.515 100.555C163.4 100.555 167.649 101.692 171.262 103.967C174.943 106.242 177.786 109.453 179.794 113.601C181.801 117.749 182.805 122.666 182.805 128.353C182.805 133.973 181.801 138.89 179.794 143.105C177.786 147.253 174.943 150.464 171.262 152.739C167.649 155.014 163.4 156.151 158.515 156.151ZM158.515 148.123C163.4 148.123 167.181 146.383 169.857 142.904C172.601 139.359 173.972 134.508 173.972 128.353C173.972 122.198 172.601 117.381 169.857 113.902C167.181 110.356 163.4 108.583 158.515 108.583C153.631 108.583 149.816 110.356 147.073 113.902C144.33 117.381 142.958 122.198 142.958 128.353C142.958 134.508 144.33 139.359 147.073 142.904C149.816 146.383 153.631 148.123 158.515 148.123ZM145.066 92.2255V85H171.965V92.2255H145.066Z" fill="black"/>
<path d="M190.658 154.947V143.607H202V154.947H190.658Z" fill="black"/>
</svg>
